<svg width="62" height="62" viewBox="0 0 62 62" fill="none" xmlns="http://www.w3.org/2000/svg">
<g clip-path="url(#clip0_11_13)">
<path d="M26.0014 0.032109L26.0491 7.09066C26.0491 12.7713 19.3074 10.7089 20.3301 19.5478L22.2329 52.5608C22.2955 54.0399 24.073 54.0674 24.0185 52.5877L24.3079 24.3195C24.455 22.016 27.1873 22.3973 27.1004 24.8189L27.4515 52.6194C27.4515 54.2784 29.1783 53.9433 29.1944 52.4968L29.6656 24.1405C29.7207 22.3341 32.3929 22.5098 32.3369 24.2253L32.7373 52.6647C32.7373 53.9483 34.3829 54.0748 34.4175 52.8172L34.8986 24.1014C35.0269 22.1401 37.666 22.4039 37.5293 24.5221L37.8598 52.5838C37.8386 54.1682 39.4637 54.0852 39.5386 52.5838L41.6924 18.1629C41.743 10.7499 35.9826 13.0927 35.8517 6.75729L35.859 1.29735e-05C56.8808 3.24872 68.9672 27.3717 57.6847 46.6588C45.607 67.305 15.7276 67.0641 4.03091 46.2262C-6.77295 26.9791 5.35253 3.37321 26.0014 0.032109Z" fill="#F2F2F2"/>
</g>
<defs>
<clipPath id="clip0_11_13">
<rect width="62" height="62" fill="white" transform="translate(62 62) rotate(-180)"/>
</clipPath>
</defs>
</svg>
